<svg xmlns="http://www.w3.org/2000/svg" width="900" height="560" viewBox="0 0 900 560">
<rect width="100%" height="100%" fill="white"/>
<line x1="90" y1="40" x2="90" y2="480" stroke="#222" stroke-width="1.5"/>
<line x1="90" y1="480" x2="870" y2="480" stroke="#222" stroke-width="1.5"/>
<text x="480.0" y="545" text-anchor="middle" font-size="15">Latency (ms)</text>
<text x="20" y="260.0" text-anchor="middle" font-size="15" transform="rotate(-90 20 260.0)">Energy per token (mJ)</text>
<circle cx="640.5" cy="70.3" r="5" fill="#1f77b4"/>
<title>g1 1300MHz: latency=16096.5, energy/token=4760.6</title>
<circle cx="368.8" cy="241.3" r="5" fill="#1f77b4"/>
<title>g2 1300MHz: latency=14535.3, energy/token=3765.5</title>
<circle cx="152.9" cy="383.2" r="5" fill="#1f77b4"/>
<title>g4 1300MHz: latency=13294.6, energy/token=2939.6</title>
<circle cx="459.4" cy="411.9" r="5" fill="#1f77b4"/>
<title>g8 1300MHz: latency=15055.9, energy/token=2772.5</title>
<circle cx="816.2" cy="117.8" r="5" fill="#1f77b4"/>
<title>g1 408MHz: latency=17106.4, energy/token=4484.2</title>
<circle cx="505.7" cy="274.7" r="5" fill="#1f77b4"/>
<title>g2 408MHz: latency=15322.4, energy/token=3570.9</title>
<circle cx="257.3" cy="406.7" r="5" fill="#1f77b4"/>
<title>g4 408MHz: latency=13894.6, energy/token=2802.5</title>
<circle cx="579.5" cy="422.1" r="5" fill="#1f77b4"/>
<title>g8 408MHz: latency=15746.4, energy/token=2713.2</title>
<circle cx="685.5" cy="168.5" r="5" fill="#1f77b4"/>
<title>g1 612MHz: latency=16355.5, energy/token=4189.2</title>
<circle cx="426.9" cy="307.6" r="5" fill="#1f77b4"/>
<title>g2 612MHz: latency=14869.3, energy/token=3379.7</title>
<circle cx="178.1" cy="431.0" r="5" fill="#1f77b4"/>
<title>g4 612MHz: latency=13439.5, energy/token=2661.2</title>
<circle cx="479.2" cy="449.7" r="5" fill="#1f77b4"/>
<title>g8 612MHz: latency=15169.8, energy/token=2552.5</title>
<circle cx="642.3" cy="164.9" r="5" fill="#1f77b4"/>
<title>g1 816MHz: latency=16106.9, energy/token=4210.2</title>
<circle cx="317.8" cy="312.1" r="5" fill="#1f77b4"/>
<title>g2 816MHz: latency=14242.2, energy/token=3353.4</title>
<circle cx="143.8" cy="431.2" r="5" fill="#1f77b4"/>
<title>g4 816MHz: latency=13242.5, energy/token=2659.8</title>
<circle cx="468.6" cy="447.7" r="5" fill="#1f77b4"/>
<title>g8 816MHz: latency=15109.0, energy/token=2564.0</title>
</svg>
